<?xml version="1.0" encoding="UTF-8"?>
<svg width="62px" height="47px" viewBox="0 0 62 47" version="1.1" xmlns="http://www.w3.org/2000/svg" xmlns:xlink="http://www.w3.org/1999/xlink">
    <title>banners</title>
    <g id="Page-1" stroke="none" stroke-width="1" fill="none" fill-rule="evenodd">
        <g id="Banners-Copy" transform="translate(-586.000000, -385.000000)">
            <g id="banners" transform="translate(587.000000, 386.000000)">
                <rect id="Rectangle" stroke="#333333" stroke-width="1.5" x="0" y="23" width="30" height="22"></rect>
                <polyline id="Path" stroke="#333333" stroke-width="1.5" points="15 19.5714286 15 11 30.0348028 11 45 11 45 22.5 45 34 32.8886311 34"></polyline>
                <polyline id="Path" stroke="#333333" stroke-width="1.5" points="30 8.22429907 30 0 60 0 60 22 47.8190255 22"></polyline>
                <path d="M15.3395579,36.54269 C15.1325792,36.409712 14.8671537,36.409712 14.6601749,36.54269 L11.1622706,38.936691 C10.9740631,39.0653513 10.8730738,38.9918311 10.9327493,38.7712705 L11.9885472,35.0355262 C12.0466447,34.7896101 11.9815726,34.5307757 11.814111,34.3416795 L9.0919886,31.5846727 C8.93132371,31.4238473 8.98640881,31.2722119 9.2159301,31.2492368 L12.8148238,30.913801 C13.0632212,30.8775344 13.2778401,30.7211358 13.388627,30.4956549 L14.8392015,27.1550816 C14.9264196,26.9483061 15.0733132,26.9483061 15.1651218,27.1550816 L16.6111058,30.4956549 C16.7240302,30.721297 16.9400099,30.8774381 17.1894995,30.913801 L20.7883932,31.2492368 C21.013324,31.2722119 21.0684092,31.4238473 20.9077443,31.5846727 L18.1902123,34.3416795 C18.0231979,34.5310354 17.9566647,34.7888955 18.0111857,35.0355262 L19.0669836,38.7712705 C19.1312495,38.9918311 19.0256697,39.0653513 18.8374623,38.936691 L15.3395579,36.54269 Z" id="Path" stroke="#000000" stroke-width="1.2" stroke-linecap="round" stroke-linejoin="round"></path>
            </g>
        </g>
    </g>
</svg>