<svg id="Livello_2" data-name="Livello 2" xmlns="http://www.w3.org/2000/svg" width="105.507" height="105.516" viewBox="0 0 105.507 105.516">
  <g id="Layer_1" data-name="Layer 1" transform="translate(0 0)">
    <g id="Group_181" data-name="Group 181">
      <path id="Path_2738" data-name="Path 2738" d="M249.541,528.567c-9.49,0-16.645-3.707-16.645-8.624a2.036,2.036,0,1,1,4.069,0c0,1.812,5.018,4.551,12.576,4.551,7.633,0,12.7-2.746,12.7-4.551a2.034,2.034,0,0,1,4.068,0C266.309,524.86,259.1,528.567,249.541,528.567Z" transform="translate(-190.262 -423.052)" fill="#434a53"/>
      <path id="Path_2739" data-name="Path 2739" d="M409.974,528.848c-9.561,0-16.764-3.707-16.764-8.624a2.034,2.034,0,0,1,4.068,0c0,1.812,5.067,4.551,12.7,4.551s12.695-2.746,12.695-4.551a2.034,2.034,0,1,1,4.068,0C426.737,525.141,419.532,528.848,409.974,528.848Z" transform="translate(-321.23 -423.332)" fill="#434a53"/>
      <path id="Path_2740" data-name="Path 2740" d="M395.244,376.337a2.032,2.032,0,0,1-2.034-2.036V341.6a2.034,2.034,0,0,1,4.068,0v32.7A2.034,2.034,0,0,1,395.244,376.337Z" transform="translate(-321.23 -277.41)" fill="#434a53"/>
      <path id="Path_2741" data-name="Path 2741" d="M556.174,375.781a2.034,2.034,0,0,1-2.034-2.036V340.924a2.034,2.034,0,1,1,4.068,0v32.822a2.032,2.032,0,0,1-2.034,2.036Z" transform="translate(-452.701 -276.854)" fill="#434a53"/>
      <path id="Path_2742" data-name="Path 2742" d="M234.928,449.271a2.034,2.034,0,0,1-2.032-2.036V430.943a2.036,2.036,0,1,1,4.069,0v16.292a2.034,2.034,0,0,1-2.037,2.036Z" transform="translate(-190.262 -350.344)" fill="#434a53"/>
      <path id="Path_2743" data-name="Path 2743" d="M249.541,484.727c-9.49,0-16.645-3.707-16.645-8.624a2.036,2.036,0,1,1,4.069,0c0,1.812,5.018,4.551,12.576,4.551a27.834,27.834,0,0,0,8.582-1.34,2.036,2.036,0,1,1,1.281,3.863A32.034,32.034,0,0,1,249.541,484.727Z" transform="translate(-190.262 -387.237)" fill="#434a53"/>
      <path id="Path_2744" data-name="Path 2744" d="M409.974,320.826c-8.331,0-16.764-2.962-16.764-8.624,0-4.915,7.2-8.622,16.764-8.622a26.494,26.494,0,0,1,3.057.22,2.163,2.163,0,0,1,1.939,2.266,1.907,1.907,0,0,1-2.1,1.812,25.4,25.4,0,0,0-2.892-.227c-7.63,0-12.7,2.746-12.7,4.551,0,1.858,4.942,4.553,12.7,4.553s12.695-2.695,12.695-4.553c0-.65-1.126-2.067-4.139-3.112a2.036,2.036,0,0,1,1.329-3.844c4.307,1.485,6.877,4.084,6.877,6.956C426.737,317.864,418.3,320.826,409.974,320.826Z" transform="translate(-321.23 -248.008)" fill="#434a53"/>
      <path id="Path_2745" data-name="Path 2745" d="M409.974,439.858c-9.561,0-16.764-3.707-16.764-8.624a2.034,2.034,0,1,1,4.068,0c0,1.812,5.067,4.553,12.7,4.553a27.025,27.025,0,0,0,8.457-1.331,2.036,2.036,0,1,1,1.283,3.861A31.155,31.155,0,0,1,409.974,439.858Z" transform="translate(-321.23 -350.632)" fill="#434a53"/>
      <path id="Path_2746" data-name="Path 2746" d="M409.974,394.728c-8.331,0-16.764-2.964-16.764-8.624a2.034,2.034,0,0,1,4.068,0c0,1.854,4.943,4.551,12.7,4.551a24.056,24.056,0,0,0,8.375-1.3,2.036,2.036,0,0,1,1.452,3.8A27.679,27.679,0,0,1,409.974,394.728Z" transform="translate(-321.23 -313.763)" fill="#434a53"/>
      <path id="Path_2747" data-name="Path 2747" d="M409.974,484.358c-9.561,0-16.764-3.709-16.764-8.624a2.034,2.034,0,0,1,4.068,0c0,1.81,5.067,4.551,12.7,4.551a26.924,26.924,0,0,0,8.457-1.333,2.036,2.036,0,1,1,1.281,3.862A31.137,31.137,0,0,1,409.974,484.358Z" transform="translate(-321.23 -386.986)" fill="#434a53"/>
      <path id="Path_2748" data-name="Path 2748" d="M249.545,410.439c-9.49,0-16.645-3.707-16.645-8.624,0-5.658,8.373-8.62,16.645-8.62a28,28,0,0,1,3.366.135,2.037,2.037,0,0,1,1.77,2.272,2.063,2.063,0,0,1-2.274,1.763,23.25,23.25,0,0,0-2.863-.1c-7.676,0-12.576,2.695-12.576,4.549,0,1.812,5.018,4.553,12.576,4.553,7.633,0,12.7-2.746,12.7-4.553,0-.864-1.3-2.242-4.139-3.224a2.036,2.036,0,0,1,1.329-3.844c4.373,1.51,6.877,4.09,6.877,7.073C266.313,406.732,259.1,410.439,249.545,410.439Z" transform="translate(-190.266 -321.214)" fill="#434a53"/>
      <path id="Path_2749" data-name="Path 2749" d="M215.584,221.842a6.235,6.235,0,0,1-6.224-6.224,2.034,2.034,0,0,1,4.068,0,2.134,2.134,0,0,0,2.158,2.156,2.064,2.064,0,0,0,2.158-2.156,2.134,2.134,0,0,0-2.158-2.155,2.037,2.037,0,0,1,0-4.073,6.233,6.233,0,0,1,6.224,6.224,6.162,6.162,0,0,1-6.226,6.228Z" transform="translate(-171.035 -171.06)" fill="#434a53"/>
      <path id="Path_2750" data-name="Path 2750" d="M234.284,113.5a2.034,2.034,0,0,1-2.034-2.037v-22.4a2.034,2.034,0,1,1,4.068,0v22.4a2.032,2.032,0,0,1-2.034,2.037Z" transform="translate(-189.735 -71.099)" fill="#434a53"/>
      <path id="Path_2751" data-name="Path 2751" d="M155.764,263.914a2.036,2.036,0,0,1-1.439-3.478l11.5-11.377a2.037,2.037,0,1,1,2.865,2.9l-11.5,11.377A2.037,2.037,0,0,1,155.764,263.914Z" transform="translate(-125.585 -202.956)" fill="#434a53"/>
      <path id="Path_2752" data-name="Path 2752" d="M37.369,88.508a1.8,1.8,0,0,1-.342-.029A44.567,44.567,0,1,1,89.214,44.552a38.744,38.744,0,0,1-.366,5.439,2.039,2.039,0,1,1-4.039-.566,33.422,33.422,0,0,0,.345-4.866A40.543,40.543,0,1,0,37.7,84.466a2.036,2.036,0,0,1-.335,4.044Z" transform="translate(0 0)" fill="#434a53"/>
      <path id="Path_2753" data-name="Path 2753" d="M234.284,39.6a2.034,2.034,0,0,1-2.034-2.036v-.84a2.034,2.034,0,0,1,4.068,0v.84a2.032,2.032,0,0,1-2.034,2.036Z" transform="translate(-189.735 -28.34)" fill="#434a53"/>
      <path id="Path_2754" data-name="Path 2754" d="M37.8,236.333H36.96a2.037,2.037,0,0,1,0-4.073H37.8a2.037,2.037,0,0,1,0,4.073Z" transform="translate(-28.58 -189.743)" fill="#434a53"/>
      <path id="Path_2755" data-name="Path 2755" d="M428.507,236.333h-.957a2.037,2.037,0,0,1,0-4.073h.957a2.037,2.037,0,0,1,0,4.073Z" transform="translate(-347.67 -189.743)" fill="#434a53"/>
      <path id="Path_2756" data-name="Path 2756" d="M95.1,97.2a2.028,2.028,0,0,1-1.435-.591l-.732-.718A2.037,2.037,0,0,1,95.8,93.007l.721.718A2.036,2.036,0,0,1,95.089,97.2Z" transform="translate(-75.458 -75.527)" fill="#434a53"/>
      <path id="Path_2757" data-name="Path 2757" d="M94.253,373.847a2.036,2.036,0,0,1-1.3-3.6l.732-.6a2.037,2.037,0,0,1,2.6,3.136l-.732.6A2.025,2.025,0,0,1,94.253,373.847Z" transform="translate(-75.336 -301.627)" fill="#434a53"/>
      <path id="Path_2758" data-name="Path 2758" d="M371.027,97.049a2.036,2.036,0,0,1-1.563-3.339l.6-.718a2.035,2.035,0,1,1,3.127,2.607l-.6.717A2.032,2.032,0,0,1,371.027,97.049Z" transform="translate(-301.445 -75.371)" fill="#434a53"/>
    </g>
  </g>
</svg>
