<?xml version="1.0" encoding="UTF-8"?>
<svg width="64px" height="45px" viewBox="0 0 64 45" version="1.1" xmlns="http://www.w3.org/2000/svg" xmlns:xlink="http://www.w3.org/1999/xlink">
    <title>Group 3</title>
    <g id="Page-1" stroke="none" stroke-width="1" fill="none" fill-rule="evenodd">
        <g id="Points-rules-list-Copy" transform="translate(-580.000000, -377.000000)">
            <g id="Group-3" transform="translate(580.000000, 377.000000)">
                <g id="Group">
                    <g id="product-list" fill="#1D1D1B" fill-rule="nonzero">
                        <path d="M50.6284193,0 L5.37158073,0 C2.40622911,0.00267829655 0.00311323262,2.0700654 0,4.62114075 L0,33.0185609 C0.00311323262,35.5696362 2.40622911,37.6370233 5.37158073,37.6397016 L23.094973,37.6397016 C23.094973,37.7184214 23.094973,37.7961693 23.094973,37.8739172 C23.094973,41.0664403 21.7743888,43.4562163 20.5419188,43.6865445 C20.5200495,43.6912068 20.4985432,43.6970495 20.4775276,43.7040378 L16.1124829,43.7040378 C15.7079945,43.7175191 15.3881628,44.0035349 15.3881628,44.3517749 C15.3881628,44.700015 15.7079945,44.9860307 16.1124829,44.9995121 L39.8875171,44.9995121 C40.1634676,45.0087094 40.4231571,44.8873024 40.5643112,44.6831053 C40.7054653,44.4789082 40.7054653,44.2246417 40.5643112,44.0204446 C40.4231571,43.8162475 40.1634676,43.6948405 39.8875171,43.7040378 L35.516824,43.7040378 C35.4943179,43.6963996 35.4713081,43.6899093 35.4479141,43.6846008 C34.2188332,43.4445541 32.9027677,41.0518626 32.9027677,37.8739172 C32.9027677,37.7951974 32.9027677,37.7184214 32.908416,37.6397016 L50.6284193,37.6397016 C53.5937709,37.6370233 55.9968868,35.5696362 56,33.0185609 L56,4.62114075 C55.9968868,2.0700654 53.5937709,0.00267829655 50.6284193,0 Z M5.37158073,1.29547437 L50.6284193,1.29547437 C52.7619299,1.29815183 54.4905316,2.78569281 54.4930203,4.62114075 L54.4930203,29.862968 L1.51149843,29.862968 L1.51149843,4.62114075 C1.51397999,2.78720682 3.23983505,1.30029082 5.37158073,1.29547437 Z M33.1614621,43.7040378 L22.8362785,43.7040378 C23.9196321,42.4231411 24.6042121,40.3074264 24.6042121,37.8729453 C24.6042121,37.7942256 24.6042121,37.7174495 24.6042121,37.6387298 L31.4048253,37.6387298 C31.4048253,37.7174495 31.399177,37.7942256 31.399177,37.8729453 C31.3969176,40.3045109 32.0826273,42.4221693 33.1659808,43.7040378 L33.1614621,43.7040378 Z M50.6284193,36.3471428 L5.37158073,36.3471428 C3.2376289,36.3450007 1.5083401,34.8573032 1.50585008,33.0214764 L1.50585008,31.1594142 L54.4930203,31.1594142 L54.4930203,33.0185609 C54.4930203,34.8553689 52.7635102,36.3449976 50.6284193,36.3471428 Z" id="Shape"></path>
                    </g>
                    <rect id="Rectangle" fill="#FFFFFF" x="50" y="12" width="14" height="12"></rect>
                    <text id="+" font-family="ArialMT, Arial" font-size="16" font-weight="normal" fill="#000000">
                        <tspan x="50.328125" y="24">+</tspan>
                    </text>
                </g>
                <g id="Group-2" transform="translate(18.500000, 7.500000)">
                    <circle id="Oval" stroke="#000000" stroke-width="1.4" cx="7.15789474" cy="8" r="7.15789474"></circle>
                    <rect id="Rectangle" fill="#FFFFFF" x="5.47368421" y="0" width="10.9473684" height="16"></rect>
                    <circle id="Oval" stroke="#000000" stroke-width="1.4" cx="12.6315789" cy="8" r="7.15789474"></circle>
                </g>
            </g>
        </g>
    </g>
</svg>