<?xml version="1.0" encoding="UTF-8"?>
<svg width="35px" height="47px" viewBox="0 0 35 47" version="1.1" xmlns="http://www.w3.org/2000/svg" xmlns:xlink="http://www.w3.org/1999/xlink">
    <title>levels-empty</title>
    <g id="Page-1" stroke="none" stroke-width="1" fill="none" fill-rule="evenodd">
        <g id="Levels-&amp;-badges-Copy" transform="translate(-579.000000, -359.000000)" stroke="#000000" stroke-width="1.61">
            <g id="levels-empty" transform="translate(580.000000, 360.000000)">
                <polyline id="Path" stroke-linecap="round" stroke-linejoin="round" points="7.56485588 14 3 0 30 0 25.1732262 14"></polyline>
                <path d="M17.5659299,32.9044833 C17.2209653,32.6828534 16.7785895,32.6828534 16.4336249,32.9044833 L10.6037843,36.8944849 C10.2901052,37.1089188 10.1217896,36.9863852 10.2212488,36.6187842 L11.980912,30.3925437 C12.0777411,29.9826835 11.9692876,29.5512929 11.690185,29.2361325 L7.15331434,24.6411211 C6.88553951,24.3730788 6.97734802,24.1203531 7.3598835,24.0820614 L13.3580397,23.5230016 C13.7720353,23.4625573 14.1297335,23.2018929 14.3143784,22.8260916 L16.7320026,17.2584694 C16.877366,16.9138435 17.1221887,16.9138435 17.2752029,17.2584694 L19.6851764,22.8260916 C19.8733837,23.2021617 20.2333498,23.4623969 20.6491658,23.5230016 L26.647322,24.0820614 C27.0222067,24.1203531 27.1140153,24.3730788 26.8462404,24.6411211 L22.3170204,29.2361325 C22.0386632,29.5517256 21.9277746,29.9814925 22.0186428,30.3925437 L23.7783059,36.6187842 C23.8854159,36.9863852 23.7094496,37.1089188 23.3957705,36.8944849 L17.5659299,32.9044833 Z" id="Path" stroke-linecap="round" stroke-linejoin="round"></path>
                <path d="M33,28.4923336 C33.003002,35.1665382 28.9848699,41.1852278 22.8195711,43.7414169 C16.6542722,46.2976059 9.55621437,44.8877901 4.83577671,40.1694766 C0.115339061,35.4511631 -1.29767177,28.3537402 1.25574164,22.1872911 C3.80915504,16.0208419 9.82603494,12 16.5002399,12 C25.6099057,12 32.9958986,19.3826682 33,28.4923336 Z" id="Path"></path>
            </g>
        </g>
    </g>
</svg>