<svg xmlns="http://www.w3.org/2000/svg" viewBox="0 0 65.15 68.75">
  <defs>
    <style>
      .cls-1 {
        fill: none;
        stroke: #1a1a1a;
        stroke-linecap: round;
        stroke-linejoin: round;
        stroke-width: 2px;
      }
    </style>
  </defs>
  <g id="Livello_2" data-name="Livello 2">
    <g id="Layer_2" data-name="Layer 2">
      <g>
        <g>
          <path class="cls-1" d="M18.39,8.22c0-4,10.25-7.22,22.88-7.22S64.15,4.23,64.15,8.22"/>
          <path class="cls-1" d="M64.15,18.87c0,3-5.85,5.59-14.15,6.67"/>
          <path class="cls-1" d="M64.15,29.52c0,3-5.85,5.59-14.15,6.67"/>
          <path class="cls-1" d="M64.15,40.17c0,3-5.85,5.59-14.15,6.67"/>
          <path class="cls-1" d="M49.69,57.53c8.47-1.06,14.46-3.66,14.46-6.71V8.22c0,4-10.24,7.22-22.88,7.22S18.39,12.21,18.39,8.22v9.07"/>
        </g>
        <g>
          <path class="cls-1" d="M1,28.58c0-4,10.24-7.22,22.88-7.22s22.88,3.24,22.88,7.22"/>
          <path class="cls-1" d="M46.76,39.23c0,4-10.25,7.22-22.88,7.22S1,43.22,1,39.23"/>
          <path class="cls-1" d="M46.76,49.88c0,4-10.25,7.22-22.88,7.22S1,53.87,1,49.88"/>
          <path class="cls-1" d="M1,60.53V28.58c0,4,10.24,7.22,22.88,7.22s22.88-3.23,22.88-7.22v32c0,4-10.25,7.22-22.88,7.22S1,64.52,1,60.53Z"/>
        </g>
      </g>
    </g>
  </g>
</svg>
